<mxfile host="app.diagrams.net" agent="Mozilla/5.0 (Windows NT 10.0; Win64; x64) AppleWebKit/537.36 (KHTML, like Gecko) Chrome/131.0.0.0 Safari/537.36" version="24.8.6">
  <diagram id="C5RBs43oDa-KdzZeNtuy" name="Page-1">
    <mxGraphModel dx="3172" dy="2182" grid="1" gridSize="10" guides="1" tooltips="1" connect="1" arrows="1" fold="1" page="1" pageScale="1" pageWidth="827" pageHeight="1169" math="0" shadow="0">
      <root>
        <mxCell id="WIyWlLk6GJQsqaUBKTNV-0" />
        <mxCell id="WIyWlLk6GJQsqaUBKTNV-1" parent="WIyWlLk6GJQsqaUBKTNV-0" />
        <mxCell id="Sw506fTtJdfGV42xw7Tw-23" style="edgeStyle=orthogonalEdgeStyle;rounded=0;orthogonalLoop=1;jettySize=auto;html=1;entryX=0.5;entryY=1;entryDx=0;entryDy=0;" edge="1" parent="WIyWlLk6GJQsqaUBKTNV-1" source="zkfFHV4jXpPFQw0GAbJ--17" target="Sw506fTtJdfGV42xw7Tw-4">
          <mxGeometry relative="1" as="geometry">
            <Array as="points">
              <mxPoint x="296" y="640" />
              <mxPoint x="296" y="640" />
            </Array>
          </mxGeometry>
        </mxCell>
        <mxCell id="zkfFHV4jXpPFQw0GAbJ--17" value="Equipo" style="swimlane;fontStyle=0;align=center;verticalAlign=top;childLayout=stackLayout;horizontal=1;startSize=26;horizontalStack=0;resizeParent=1;resizeLast=0;collapsible=1;marginBottom=0;rounded=0;shadow=0;strokeWidth=1;" parent="WIyWlLk6GJQsqaUBKTNV-1" vertex="1">
          <mxGeometry x="140" y="740" width="312" height="290" as="geometry">
            <mxRectangle x="550" y="140" width="160" height="26" as="alternateBounds" />
          </mxGeometry>
        </mxCell>
        <mxCell id="zkfFHV4jXpPFQw0GAbJ--18" value="- partidos: Partido [ ]&#xa;- jugadores: Jugador [ ]&#xa;- entrenador: Entrenador" style="text;align=left;verticalAlign=top;spacingLeft=4;spacingRight=4;overflow=hidden;rotatable=0;points=[[0,0.5],[1,0.5]];portConstraint=eastwest;" parent="zkfFHV4jXpPFQw0GAbJ--17" vertex="1">
          <mxGeometry y="26" width="312" height="84" as="geometry" />
        </mxCell>
        <mxCell id="zkfFHV4jXpPFQw0GAbJ--23" value="" style="line;html=1;strokeWidth=1;align=left;verticalAlign=middle;spacingTop=-1;spacingLeft=3;spacingRight=3;rotatable=0;labelPosition=right;points=[];portConstraint=eastwest;" parent="zkfFHV4jXpPFQw0GAbJ--17" vertex="1">
          <mxGeometry y="110" width="312" height="8" as="geometry" />
        </mxCell>
        <mxCell id="zkfFHV4jXpPFQw0GAbJ--25" value="+ get_partidos(): Partido [ ]&#xa;+ get_jugadores(): Jugador [ ]&#xa;+ get_entrenador (): Entrenador&#xa;+ set_entrenador (Entrenador): void&#xa;+ anadir_jugador (string, float, float, string): void&#xa;+ eliminar_jugador (string): void&#xa;+ anadir_partido (string, int, int): void&#xa;" style="text;align=left;verticalAlign=top;spacingLeft=4;spacingRight=4;overflow=hidden;rotatable=0;points=[[0,0.5],[1,0.5]];portConstraint=eastwest;" parent="zkfFHV4jXpPFQw0GAbJ--17" vertex="1">
          <mxGeometry y="118" width="312" height="142" as="geometry" />
        </mxCell>
        <mxCell id="Sw506fTtJdfGV42xw7Tw-0" value="Partido" style="swimlane;fontStyle=0;align=center;verticalAlign=top;childLayout=stackLayout;horizontal=1;startSize=26;horizontalStack=0;resizeParent=1;resizeLast=0;collapsible=1;marginBottom=0;rounded=0;shadow=0;strokeWidth=1;" vertex="1" parent="WIyWlLk6GJQsqaUBKTNV-1">
          <mxGeometry x="515" y="340" width="312" height="290" as="geometry">
            <mxRectangle x="550" y="140" width="160" height="26" as="alternateBounds" />
          </mxGeometry>
        </mxCell>
        <mxCell id="Sw506fTtJdfGV42xw7Tw-1" value="- rival: string&#xa;- goles_contra: int&#xa;- goles_favor: int" style="text;align=left;verticalAlign=top;spacingLeft=4;spacingRight=4;overflow=hidden;rotatable=0;points=[[0,0.5],[1,0.5]];portConstraint=eastwest;" vertex="1" parent="Sw506fTtJdfGV42xw7Tw-0">
          <mxGeometry y="26" width="312" height="84" as="geometry" />
        </mxCell>
        <mxCell id="Sw506fTtJdfGV42xw7Tw-2" value="" style="line;html=1;strokeWidth=1;align=left;verticalAlign=middle;spacingTop=-1;spacingLeft=3;spacingRight=3;rotatable=0;labelPosition=right;points=[];portConstraint=eastwest;" vertex="1" parent="Sw506fTtJdfGV42xw7Tw-0">
          <mxGeometry y="110" width="312" height="8" as="geometry" />
        </mxCell>
        <mxCell id="Sw506fTtJdfGV42xw7Tw-3" value="+ // getters&#xa;+ get_rival(): string&#xa;+ get_goles_contra(): int&#xa;+ get_goles_favor(): int&#xa;+ // setters&#xa;+ set_rival(string): void&#xa;+ set_goles_contra(int): void&#xa;+ set_goles_favor(int): void&#xa;" style="text;align=left;verticalAlign=top;spacingLeft=4;spacingRight=4;overflow=hidden;rotatable=0;points=[[0,0.5],[1,0.5]];portConstraint=eastwest;" vertex="1" parent="Sw506fTtJdfGV42xw7Tw-0">
          <mxGeometry y="118" width="312" height="142" as="geometry" />
        </mxCell>
        <mxCell id="Sw506fTtJdfGV42xw7Tw-4" value="Entrenador" style="swimlane;fontStyle=0;align=center;verticalAlign=top;childLayout=stackLayout;horizontal=1;startSize=26;horizontalStack=0;resizeParent=1;resizeLast=0;collapsible=1;marginBottom=0;rounded=0;shadow=0;strokeWidth=1;" vertex="1" parent="WIyWlLk6GJQsqaUBKTNV-1">
          <mxGeometry x="140" y="340" width="312" height="290" as="geometry">
            <mxRectangle x="550" y="140" width="160" height="26" as="alternateBounds" />
          </mxGeometry>
        </mxCell>
        <mxCell id="Sw506fTtJdfGV42xw7Tw-5" value="- experiencia: string&#xa;- titulos: int" style="text;align=left;verticalAlign=top;spacingLeft=4;spacingRight=4;overflow=hidden;rotatable=0;points=[[0,0.5],[1,0.5]];portConstraint=eastwest;" vertex="1" parent="Sw506fTtJdfGV42xw7Tw-4">
          <mxGeometry y="26" width="312" height="84" as="geometry" />
        </mxCell>
        <mxCell id="Sw506fTtJdfGV42xw7Tw-6" value="" style="line;html=1;strokeWidth=1;align=left;verticalAlign=middle;spacingTop=-1;spacingLeft=3;spacingRight=3;rotatable=0;labelPosition=right;points=[];portConstraint=eastwest;" vertex="1" parent="Sw506fTtJdfGV42xw7Tw-4">
          <mxGeometry y="110" width="312" height="8" as="geometry" />
        </mxCell>
        <mxCell id="Sw506fTtJdfGV42xw7Tw-7" value="+ // getters&#xa;+ get_experiencia(): string&#xa;+ get_titulos(): int&#xa;+ // setters&#xa;+ set_experiencia(string): void&#xa;+ set_titulos(int): void" style="text;align=left;verticalAlign=top;spacingLeft=4;spacingRight=4;overflow=hidden;rotatable=0;points=[[0,0.5],[1,0.5]];portConstraint=eastwest;" vertex="1" parent="Sw506fTtJdfGV42xw7Tw-4">
          <mxGeometry y="118" width="312" height="142" as="geometry" />
        </mxCell>
        <mxCell id="Sw506fTtJdfGV42xw7Tw-8" value="Jugador" style="swimlane;fontStyle=0;align=center;verticalAlign=top;childLayout=stackLayout;horizontal=1;startSize=26;horizontalStack=0;resizeParent=1;resizeLast=0;collapsible=1;marginBottom=0;rounded=0;shadow=0;strokeWidth=1;" vertex="1" parent="WIyWlLk6GJQsqaUBKTNV-1">
          <mxGeometry x="-270" y="340" width="312" height="290" as="geometry">
            <mxRectangle x="550" y="140" width="160" height="26" as="alternateBounds" />
          </mxGeometry>
        </mxCell>
        <mxCell id="Sw506fTtJdfGV42xw7Tw-9" value="- edad: float&#xa;- posicion: string" style="text;align=left;verticalAlign=top;spacingLeft=4;spacingRight=4;overflow=hidden;rotatable=0;points=[[0,0.5],[1,0.5]];portConstraint=eastwest;" vertex="1" parent="Sw506fTtJdfGV42xw7Tw-8">
          <mxGeometry y="26" width="312" height="84" as="geometry" />
        </mxCell>
        <mxCell id="Sw506fTtJdfGV42xw7Tw-10" value="" style="line;html=1;strokeWidth=1;align=left;verticalAlign=middle;spacingTop=-1;spacingLeft=3;spacingRight=3;rotatable=0;labelPosition=right;points=[];portConstraint=eastwest;" vertex="1" parent="Sw506fTtJdfGV42xw7Tw-8">
          <mxGeometry y="110" width="312" height="8" as="geometry" />
        </mxCell>
        <mxCell id="Sw506fTtJdfGV42xw7Tw-11" value="+ // getters&#xa;+ get_edad(): float&#xa;+ get_posicion: string&#xa;+ // setters&#xa;+ set_edad(float): void&#xa;+ set_posicion (string): void&#xa;" style="text;align=left;verticalAlign=top;spacingLeft=4;spacingRight=4;overflow=hidden;rotatable=0;points=[[0,0.5],[1,0.5]];portConstraint=eastwest;" vertex="1" parent="Sw506fTtJdfGV42xw7Tw-8">
          <mxGeometry y="118" width="312" height="142" as="geometry" />
        </mxCell>
        <mxCell id="Sw506fTtJdfGV42xw7Tw-16" value="Miembro" style="swimlane;fontStyle=0;align=center;verticalAlign=top;childLayout=stackLayout;horizontal=1;startSize=26;horizontalStack=0;resizeParent=1;resizeLast=0;collapsible=1;marginBottom=0;rounded=0;shadow=0;strokeWidth=1;" vertex="1" parent="WIyWlLk6GJQsqaUBKTNV-1">
          <mxGeometry x="-90" y="-80" width="312" height="290" as="geometry">
            <mxRectangle x="550" y="140" width="160" height="26" as="alternateBounds" />
          </mxGeometry>
        </mxCell>
        <mxCell id="Sw506fTtJdfGV42xw7Tw-17" value="#nombre: string&#xa;# salario: float&#xa;" style="text;align=left;verticalAlign=top;spacingLeft=4;spacingRight=4;overflow=hidden;rotatable=0;points=[[0,0.5],[1,0.5]];portConstraint=eastwest;" vertex="1" parent="Sw506fTtJdfGV42xw7Tw-16">
          <mxGeometry y="26" width="312" height="84" as="geometry" />
        </mxCell>
        <mxCell id="Sw506fTtJdfGV42xw7Tw-18" value="" style="line;html=1;strokeWidth=1;align=left;verticalAlign=middle;spacingTop=-1;spacingLeft=3;spacingRight=3;rotatable=0;labelPosition=right;points=[];portConstraint=eastwest;" vertex="1" parent="Sw506fTtJdfGV42xw7Tw-16">
          <mxGeometry y="110" width="312" height="8" as="geometry" />
        </mxCell>
        <mxCell id="Sw506fTtJdfGV42xw7Tw-19" value="+ // getters&#xa;+ get_nombre(): float&#xa;+ get_salario(): float&#xa;+ // setters&#xa;+ set_nombre(string): void&#xa;+ set_salario(float):void" style="text;align=left;verticalAlign=top;spacingLeft=4;spacingRight=4;overflow=hidden;rotatable=0;points=[[0,0.5],[1,0.5]];portConstraint=eastwest;" vertex="1" parent="Sw506fTtJdfGV42xw7Tw-16">
          <mxGeometry y="118" width="312" height="142" as="geometry" />
        </mxCell>
        <mxCell id="Sw506fTtJdfGV42xw7Tw-20" value="Extends" style="endArrow=block;endSize=16;endFill=0;html=1;rounded=0;exitX=0.5;exitY=0;exitDx=0;exitDy=0;entryX=0.5;entryY=1;entryDx=0;entryDy=0;" edge="1" parent="WIyWlLk6GJQsqaUBKTNV-1" source="Sw506fTtJdfGV42xw7Tw-8" target="Sw506fTtJdfGV42xw7Tw-16">
          <mxGeometry width="160" relative="1" as="geometry">
            <mxPoint x="-110" y="280" as="sourcePoint" />
            <mxPoint x="50" y="280" as="targetPoint" />
          </mxGeometry>
        </mxCell>
        <mxCell id="Sw506fTtJdfGV42xw7Tw-21" value="Extends" style="endArrow=block;endSize=16;endFill=0;html=1;rounded=0;exitX=0.5;exitY=0;exitDx=0;exitDy=0;entryX=0.5;entryY=1;entryDx=0;entryDy=0;" edge="1" parent="WIyWlLk6GJQsqaUBKTNV-1" source="Sw506fTtJdfGV42xw7Tw-4" target="Sw506fTtJdfGV42xw7Tw-16">
          <mxGeometry width="160" relative="1" as="geometry">
            <mxPoint x="280" y="300" as="sourcePoint" />
            <mxPoint x="460" y="170" as="targetPoint" />
          </mxGeometry>
        </mxCell>
        <mxCell id="Sw506fTtJdfGV42xw7Tw-22" value="1" style="endArrow=open;html=1;endSize=12;startArrow=diamondThin;startSize=14;startFill=1;edgeStyle=orthogonalEdgeStyle;align=left;verticalAlign=bottom;rounded=0;exitX=0.5;exitY=0;exitDx=0;exitDy=0;entryX=0.5;entryY=1;entryDx=0;entryDy=0;" edge="1" parent="WIyWlLk6GJQsqaUBKTNV-1" source="zkfFHV4jXpPFQw0GAbJ--17" target="Sw506fTtJdfGV42xw7Tw-8">
          <mxGeometry x="-1" y="3" relative="1" as="geometry">
            <mxPoint x="216" y="660" as="sourcePoint" />
            <mxPoint x="376" y="660" as="targetPoint" />
            <Array as="points">
              <mxPoint x="270" y="740" />
              <mxPoint x="270" y="710" />
              <mxPoint x="-114" y="710" />
            </Array>
          </mxGeometry>
        </mxCell>
        <mxCell id="Sw506fTtJdfGV42xw7Tw-25" value="1" style="text;html=1;align=center;verticalAlign=middle;resizable=0;points=[];autosize=1;strokeColor=none;fillColor=none;" vertex="1" parent="WIyWlLk6GJQsqaUBKTNV-1">
          <mxGeometry x="270" y="630" width="30" height="30" as="geometry" />
        </mxCell>
        <mxCell id="Sw506fTtJdfGV42xw7Tw-26" value="1" style="endArrow=open;html=1;endSize=12;startArrow=diamondThin;startSize=14;startFill=1;edgeStyle=orthogonalEdgeStyle;align=left;verticalAlign=bottom;rounded=0;exitX=0.5;exitY=0;exitDx=0;exitDy=0;entryX=0.5;entryY=1;entryDx=0;entryDy=0;" edge="1" parent="WIyWlLk6GJQsqaUBKTNV-1" source="zkfFHV4jXpPFQw0GAbJ--17" target="Sw506fTtJdfGV42xw7Tw-0">
          <mxGeometry x="-1" y="3" relative="1" as="geometry">
            <mxPoint x="980" y="770" as="sourcePoint" />
            <mxPoint x="570" y="660" as="targetPoint" />
            <Array as="points">
              <mxPoint x="350" y="740" />
              <mxPoint x="350" y="710" />
              <mxPoint x="670" y="710" />
            </Array>
          </mxGeometry>
        </mxCell>
        <mxCell id="Sw506fTtJdfGV42xw7Tw-27" value="20" style="text;html=1;align=center;verticalAlign=middle;resizable=0;points=[];autosize=1;strokeColor=none;fillColor=none;" vertex="1" parent="WIyWlLk6GJQsqaUBKTNV-1">
          <mxGeometry x="-120" y="630" width="40" height="30" as="geometry" />
        </mxCell>
        <mxCell id="Sw506fTtJdfGV42xw7Tw-28" value="10" style="text;html=1;align=center;verticalAlign=middle;resizable=0;points=[];autosize=1;strokeColor=none;fillColor=none;" vertex="1" parent="WIyWlLk6GJQsqaUBKTNV-1">
          <mxGeometry x="620" y="630" width="40" height="30" as="geometry" />
        </mxCell>
      </root>
    </mxGraphModel>
  </diagram>
</mxfile>
